<?xml version="1.0" ?><!DOCTYPE svg  PUBLIC '-//W3C//DTD SVG 1.1//EN'  'http://www.w3.org/Graphics/SVG/1.1/DTD/svg11.dtd'><svg enable-background="new 0 0 512 512" height="512px" id="Calque_1" version="1.1" viewBox="0 0 512 512" width="512px" xml:space="preserve" xmlns="http://www.w3.org/2000/svg" xmlns:xlink="http://www.w3.org/1999/xlink"><g><g><path d="M253.67,33.689v83.45c0,30.33-19.23,57.38-47.87,67.3c-3.01,1.05-5.04,3.89-5.04,7.09v268.66    c0,2.029-0.33,4.01-0.96,5.869c-0.88,2.641-2.37,5.051-4.4,7.07c-3.448,3.46-8.05,5.358-12.938,5.358    c-10.08,0-18.29-8.21-18.29-18.3V191.51c0-3.19-2.03-6.04-5.05-7.08c-28.63-9.91-47.87-36.95-47.87-67.29v-83.45h18.08v89.07    c0,11.438,9.3,20.738,20.729,20.738c11.432,0,20.73-9.3,20.73-20.729c0-0.102,0-0.2-0.012-0.3v-88.78h20.062v89.07    c0,11.438,9.3,20.738,20.729,20.738c11.432,0,20.73-9.3,20.73-20.729c0-0.102,0-0.19-0.01-0.28v-88.8H253.67z" fill="#E157E5"/><path d="M400.75,50.129v412.922c0,8.51-7.361,15.438-16.41,15.438c-9.041,0-16.4-6.931-16.4-15.438V315.999    c0-4.14-3.359-7.5-7.5-7.5h-20.131l23.922-257.68c0.02-0.23,0.029-0.46,0.029-0.69c0-8.948,11.039-16.618,20.08-16.618    c2.148,0,4.197,0.42,6.08,1.188C396.469,37.149,400.75,43.139,400.75,50.129z" fill="#E157E5"/></g><path d="M199.8,466.058c-0.88,2.641-2.37,5.051-4.4,7.07   c-3.448,3.46-8.05,5.358-12.938,5.358c-10.08,0-18.29-8.21-18.29-18.3V191.51c0-3.19-2.03-6.04-5.05-7.08   c-28.63-9.91-47.87-36.95-47.87-67.29v-83.45h8.229c-14.92,147.81,62.98,124.41,62.98,124.41   C170.139,345.319,182.269,430.01,199.8,466.058z" enable-background="new    " opacity="0.3"/><path d="M253.67,33.689v83.45c0,30.33-19.23,57.38-47.87,67.3   c-3.01,1.05-5.04,3.89-5.04,7.09v268.66c0,2.029-0.33,4.01-0.96,5.869l-7.3-290.562c72-35,49-141.81,49-141.81L253.67,33.689   L253.67,33.689z" enable-background="new    " fill="#FFFFFF" opacity="0.7"/><polygon enable-background="new    " opacity="0.3" points="170.779,122.469 190.84,33.689 170.779,33.689  "/><path d="M400.75,447.039v16.012c0,8.51-7.361,15.438-16.41,15.438   c-9.041,0-16.4-6.931-16.4-15.438V315.999c0-4.14-3.359-7.5-7.5-7.5h-20.131l23.922-257.68c0.02-0.23,0.029-0.46,0.029-0.69   c0-8.948,11.039-16.618,20.08-16.618c2.148,0,4.197,0.42,6.08,1.188C380.071,109.769,349.908,362.959,400.75,447.039z" enable-background="new    " opacity="0.3"/><path d="M400.75,50.129v396.91c-20.75-64.96-10.33-412.34-10.33-412.34   C396.469,37.149,400.75,43.139,400.75,50.129z" enable-background="new    " fill="#FFFFFF" opacity="0.7"/></g></svg>