<?xml version="1.0" ?><!DOCTYPE svg  PUBLIC '-//W3C//DTD SVG 1.1//EN'  'http://www.w3.org/Graphics/SVG/1.1/DTD/svg11.dtd'><svg enable-background="new 0 0 512 512" height="512px" id="Calque_1" version="1.1" viewBox="0 0 512 512" width="512px" xml:space="preserve" xmlns="http://www.w3.org/2000/svg" xmlns:xlink="http://www.w3.org/1999/xlink"><g><g><rect fill="#DAE8EB" height="16" width="134.049" x="280.176" y="49.46"/><polygon fill="#DAE8EB" points="295.485,118.33 249.865,118.33 272.676,85.98   "/><polygon fill="#DAE8EB" points="444.535,118.33 313.836,118.33 287.135,80.46 417.836,80.46 432.715,101.56   "/><rect fill="#E157E5" height="329.21" width="59.55" x="242.895" y="133.33"/><rect fill="#E157E5" height="329.21" width="134.1" x="317.446" y="133.33"/><polygon fill="#E157E5" points="168.805,290.54 153.975,436.7 151.355,462.54 77.655,462.54 60.455,290.54   "/></g><path d="M153.975,436.7l-2.62,25.84h-73.7l-17.2-172h24.96   C80.335,340.69,79.105,442.53,153.975,436.7z" enable-background="new    " opacity="0.3"/><polygon enable-background="new    " fill="#FFFFFF" opacity="0.7" points="85.415,290.54 146.605,310 153.975,436.7    168.805,290.54  "/><path d="M302.446,455.849v6.689h-59.55V133.33h23.929   C255.695,206.7,237.955,379.66,302.446,455.849z" enable-background="new    " opacity="0.3"/><polygon enable-background="new    " fill="#FFFFFF" opacity="0.7" points="266.824,133.33 287.135,157.5 302.446,455.849    302.446,133.33  "/><path d="M451.545,133.33v329.21h-134.1v-20.68   c71.318-7.351,149.799-65.521,101.25-308.53H451.545L451.545,133.33z" enable-background="new    " opacity="0.3"/><polygon enable-background="new    " fill="#FFFFFF" opacity="0.7" points="418.696,133.33 343.106,158.5 317.446,441.86    317.446,133.33  "/><path d="M444.535,118.33H313.836l-26.701-37.87h19.391   c9,13.021,37.49,34.271,126.189,21.101L444.535,118.33z" enable-background="new    " opacity="0.3"/><polygon enable-background="new    " opacity="0.3" points="272.676,85.98 270.606,118.33 249.865,118.33  "/><polygon enable-background="new    " fill="#FFFFFF" opacity="0.7" points="306.526,80.46 406.106,89 432.715,101.56    417.836,80.46  "/><polygon enable-background="new    " fill="#FFFFFF" opacity="0.7" points="272.676,85.98 284.635,118.33 295.485,118.33  "/><polygon enable-background="new    " opacity="0.3" points="280.176,49.46 414.225,65.46 280.176,65.46  "/></g></svg>